<svg width="800" height="800" viewBox="0 0 800 800" fill="none" xmlns="http://www.w3.org/2000/svg">
<rect width="800" height="800" rx="150" fill="white"/>
<path opacity="0.5" d="M397.457 654.738C519.619 654.738 618.65 630.175 618.65 599.875C618.65 569.575 519.619 545.011 397.457 545.011C275.295 545.011 176.264 569.575 176.264 599.875C176.264 630.175 275.295 654.738 397.457 654.738Z" fill="#B8CBCD"/>
<path d="M196.33 308.159C193.662 308.159 190.994 307.348 188.675 305.84C182.295 301.664 126.852 263.387 126.852 220.007C126.852 217.455 126.968 215.019 127.084 212.584C113.629 201.564 106.786 184.166 108.177 163.404C108.641 155.748 115.369 149.949 123.024 150.413C130.68 150.877 136.479 157.604 136.015 165.26C135.667 170.479 136.015 175.119 137.175 179.062C144.134 167.927 153.53 161.2 162.693 158.068C177.888 152.965 193.662 157.604 202.825 169.783C212.337 182.426 212.917 196.693 204.565 207.944C194.938 220.819 174.524 227.198 155.038 224.415C159.097 247.613 192.038 274.406 204.101 282.526C210.481 286.817 212.221 295.401 207.929 301.78C205.261 305.956 200.854 308.159 196.33 308.159ZM159.097 197.041C169.42 198.549 179.395 195.301 182.295 191.473C182.527 191.125 183.223 190.197 180.555 186.602C177.772 183.006 173.248 183.934 171.508 184.63C167.101 186.022 162.345 189.965 159.097 197.041Z" fill="#783741"/>
<path d="M660.291 325.21H635.237C629.205 287.165 608.675 252.6 577.938 225.111L582.229 158.184L525.51 189.965C488.625 171.755 445.013 161.2 398.269 161.2C266.272 161.2 159.329 244.945 159.329 348.408C159.329 406.171 192.734 457.903 245.278 492.236L235.999 516.362C225.908 542.692 239.014 572.153 265.344 582.36C291.674 592.451 321.135 579.345 331.343 553.015L340.158 530.049C358.716 533.644 378.203 535.616 398.269 535.616C417.407 535.616 435.966 533.76 453.828 530.513L462.412 553.015C472.503 579.345 502.08 592.451 528.41 582.36C554.74 572.269 567.847 542.692 557.755 516.362L549.056 493.628C574.69 477.273 595.916 456.743 611.111 433.545H660.407C670.614 433.545 678.965 425.194 678.965 414.986V343.768C678.849 333.561 670.614 325.21 660.291 325.21Z" fill="#FFBAB0"/>
<path d="M455.452 181.382C483.29 181.382 510.083 184.282 535.717 189.617C497.093 169.783 450.58 158.184 400.473 158.184C267.2 158.184 159.213 240.189 159.213 341.449C159.213 347.828 159.677 354.208 160.489 360.471C190.878 257.936 311.392 181.382 455.452 181.382Z" fill="white"/>
<g opacity="0.2">
<path d="M607.863 437.952C544.301 464.398 493.265 473.677 402.793 469.038C278.567 462.658 176.728 392.252 169.072 295.285C162.693 312.103 159.213 329.966 159.213 348.408C159.213 406.171 192.618 457.903 245.162 492.236L235.883 516.362C225.791 542.692 238.898 572.153 265.228 582.36C291.558 592.451 321.019 579.345 331.227 553.015L340.042 530.049C358.6 533.644 378.087 535.616 398.153 535.616C417.291 535.616 435.85 533.76 453.712 530.513L462.295 553.015C472.387 579.345 501.964 592.451 528.294 582.36C554.624 572.269 567.731 542.692 557.639 516.362L548.94 493.628C572.95 478.317 592.9 459.295 607.863 437.952Z" fill="#783741"/>
<path d="M604.615 427.281L660.291 433.429C670.498 433.429 678.849 425.078 678.849 414.87V399.444H618.534C618.534 399.444 613.547 424.034 604.615 427.281Z" fill="#783741"/>
</g>
<path d="M326.239 223.139C348.277 215.715 372.635 211.656 398.153 211.656C421.931 211.656 444.549 215.251 465.427 221.631" fill="#FFBAB0"/>
<path d="M326.239 237.057C320.44 237.057 314.988 233.346 313.016 227.546C310.58 220.239 314.524 212.352 321.715 209.916C345.725 201.796 371.475 197.737 398.037 197.737C422.395 197.737 446.405 201.333 469.371 208.292C476.678 210.496 480.854 218.267 478.65 225.69C476.446 232.998 468.675 237.173 461.252 234.97C440.953 228.706 419.611 225.574 398.037 225.574C374.491 225.574 351.757 229.17 330.531 236.362C329.255 236.826 327.747 237.057 326.239 237.057Z" fill="#783741"/>
<path d="M551.26 339.129C562.791 339.129 572.138 329.781 572.138 318.251C572.138 306.72 562.791 297.372 551.26 297.372C539.729 297.372 530.382 306.72 530.382 318.251C530.382 329.781 539.729 339.129 551.26 339.129Z" fill="#783741"/>
<path d="M405.112 428.789C376.927 428.789 359.992 412.667 358.136 410.811L377.855 391.092L377.739 390.976C378.203 391.44 388.41 400.952 405.112 400.952C417.291 400.952 423.671 396.196 423.671 387.033C423.671 379.029 416.479 374.97 396.297 367.546C378.435 361.051 354.077 352.12 354.077 326.718C354.077 301.78 372.751 284.961 400.473 284.961C422.627 284.961 438.866 295.401 440.721 296.56C447.101 300.852 448.841 309.435 444.549 315.815C440.257 322.194 431.674 323.934 425.295 319.758C424.947 319.527 414.16 312.799 400.473 312.799C388.178 312.799 381.914 317.439 381.914 326.718C381.914 332.285 391.426 336.113 405.808 341.449C425.063 348.524 451.508 358.151 451.508 387.033C451.508 407.795 437.126 428.789 405.112 428.789Z" fill="#783741"/>
<path d="M400.473 450.479C397.921 450.479 395.833 448.392 395.833 445.84V269.535C395.833 266.983 397.921 264.895 400.473 264.895C403.025 264.895 405.112 266.983 405.112 269.535V445.84C405.112 448.392 403.025 450.479 400.473 450.479Z" fill="#783741"/>
<path d="M393.513 538.632C388.41 538.632 384.234 534.456 384.234 529.353C384.234 524.249 388.41 520.074 393.513 520.074C429.006 520.074 462.991 513.81 494.541 501.283C499.296 499.427 504.748 501.747 506.604 506.503C508.46 511.258 506.14 516.71 501.384 518.566C467.631 531.905 431.442 538.632 393.513 538.632Z" fill="#783741"/>
<path d="M298.401 520.074C297.358 520.074 296.314 519.958 295.27 519.494C268.36 509.982 244.118 496.876 223.008 480.405C218.948 477.273 218.252 471.358 221.384 467.414C224.516 463.354 230.431 462.658 234.375 465.79C253.861 480.985 276.363 493.164 301.301 501.979C306.173 503.719 308.725 508.938 306.985 513.81C305.825 517.638 302.229 520.074 298.401 520.074Z" fill="#783741"/>
<path d="M510.084 599.643C483.29 599.643 458.932 582.94 449.421 558.002L444.897 546.055C429.238 548.375 413.58 549.535 398.269 549.535C381.798 549.535 365.328 548.259 349.089 545.707L344.334 558.002C334.474 583.288 310.696 599.643 283.671 599.643C275.667 599.643 267.896 598.135 260.357 595.351C226.951 582.36 210.249 544.779 223.008 511.374L228.343 497.455C175.452 459.411 145.41 405.591 145.41 348.408C145.41 294.009 172.204 243.089 220.688 205.044C268.244 167.811 331.343 147.281 398.269 147.281C442.925 147.281 486.537 156.56 525.046 174.307L575.502 146.005C579.91 143.569 585.361 143.685 589.769 146.353C594.06 149.021 596.612 153.893 596.264 158.996L592.437 219.311C620.274 245.873 638.949 277.306 646.836 311.175H660.407C678.153 311.175 692.768 325.674 693 343.536V343.652V414.87C693 432.733 678.385 447.348 660.523 447.348H618.418C604.616 466.602 586.753 484.233 565.991 498.847L570.746 511.258C583.621 544.779 566.803 582.36 533.398 595.235C525.858 598.251 518.087 599.643 510.084 599.643ZM453.828 516.594C459.512 516.594 464.731 520.074 466.819 525.525L475.402 548.027C480.854 562.294 494.773 571.805 510.084 571.805C514.607 571.805 519.131 570.993 523.422 569.369C542.561 562.062 552.072 540.488 544.765 521.349L536.065 498.615C533.746 492.468 535.949 485.508 541.633 481.913C565.527 466.718 585.477 447.348 599.512 425.89C602.064 421.946 606.471 419.626 611.111 419.626H660.407C662.959 419.626 665.046 417.538 665.046 414.986V343.884C665.046 341.217 662.843 339.129 660.291 339.129H635.237C628.393 339.129 622.594 334.141 621.434 327.414C615.983 293.429 597.772 261.647 568.659 235.55C565.527 232.65 563.787 228.59 564.019 224.299L566.687 182.89L532.354 202.144C528.294 204.348 523.538 204.464 519.363 202.492C483.174 184.63 441.301 175.119 398.269 175.119C274.159 175.119 173.248 252.832 173.248 348.408C173.248 399.328 202.246 447.464 252.933 480.637C258.385 484.233 260.705 491.192 258.269 497.34L248.99 521.465C241.682 540.488 251.309 562.062 270.332 569.485C274.623 571.109 279.031 571.921 283.555 571.921C298.981 571.921 312.668 562.526 318.236 548.027L327.051 525.061C329.487 518.798 336.098 515.086 342.71 516.362C360.92 519.842 379.595 521.697 398.153 521.697C415.551 521.697 433.414 520.074 451.276 516.826C452.204 516.71 453.016 516.594 453.828 516.594Z" fill="#783741"/>
</svg>
